<?xml version="1.0" encoding="UTF-8" standalone="no"?>
<!DOCTYPE svg PUBLIC "-//W3C//DTD SVG 1.1//EN" "http://www.w3.org/Graphics/SVG/1.1/DTD/svg11.dtd">
<svg width="100%" height="100%" viewBox="0 0 4961 3508" version="1.1" xmlns="http://www.w3.org/2000/svg" xmlns:xlink="http://www.w3.org/1999/xlink" xml:space="preserve" xmlns:serif="http://www.serif.com/" style="fill-rule:evenodd;clip-rule:evenodd;stroke-linejoin:round;stroke-miterlimit:2;">
    <g transform="matrix(1,0,0,1,-428.427,135.52)">
        <g transform="matrix(1.68604,0,0,1.68604,-492.661,983.989)">
            <circle cx="1464.87" cy="376.284" r="134.665" style="fill:rgb(255,230,0);fill-opacity:0.82;"/>
        </g>
        <g transform="matrix(1.68604,0,0,1.68604,52.5174,983.989)">
            <circle cx="1464.87" cy="376.284" r="134.665" style="fill:rgb(255,116,0);fill-opacity:0.6;"/>
        </g>
        <g transform="matrix(1.68604,0,0,1.68604,-812.208,983.989)">
            <circle cx="1464.87" cy="376.284" r="134.665" style="fill:rgb(0,255,244);fill-opacity:0.6;"/>
        </g>
        <g transform="matrix(0.280521,0,0,0.280521,541.106,-552.264)">
            <g transform="matrix(1200,0,0,1200,11201.1,8030.69)">
            </g>
            <text x="8264.36px" y="8030.69px" style="font-family:'URWDINCond-Bold', 'URW DIN Cond';font-weight:700;font-size:1200px;">S<tspan x="8812.8px 9285.07px 9718.07px 10191.5px 10728.8px " y="8030.69px 8030.69px 8030.69px 8030.69px 8030.69px ">yzygy</tspan></text>
        </g>
        <g transform="matrix(0.280521,0,0,0.280521,435.553,-606.43)">
            <g transform="matrix(1200,0,0,1200,14160.8,8227.88)">
            </g>
            <text x="11695.2px" y="8227.88px" style="font-family:'URWDINCond-XLight', 'URW DIN Cond';font-weight:250;font-size:1200px;">De<tspan x="12662.5px 13055.7px 13265.5px " y="8227.88px 8227.88px 8227.88px ">sig</tspan>n</text>
        </g>
    </g>
</svg>
