<?xml version="1.0" encoding="UTF-8" standalone="no"?><!DOCTYPE svg PUBLIC "-//W3C//DTD SVG 1.1//EN" "http://www.w3.org/Graphics/SVG/1.1/DTD/svg11.dtd"><svg width="100%" height="100%" viewBox="0 0 4961 3508" version="1.1" xmlns="http://www.w3.org/2000/svg" xmlns:xlink="http://www.w3.org/1999/xlink" xml:space="preserve" xmlns:serif="http://www.serif.com/" style="fill-rule:evenodd;clip-rule:evenodd;stroke-linejoin:round;stroke-miterlimit:2;"><g><circle cx="1548.74" cy="1753.94" r="227.05" style="fill:#ffe600;fill-opacity:0.82;"/><circle cx="2093.91" cy="1753.94" r="227.05" style="fill:#ff7400;fill-opacity:0.6;"/><circle cx="1229.19" cy="1753.94" r="227.05" style="fill:#00fff4;fill-opacity:0.6;"/><g><path d="M2522.56,1796.26c4.055,-5.698 6.082,-14.465 6.082,-26.299c-0,-11.835 -2.246,-20.108 -6.739,-24.82c-2.52,-2.739 -5.205,-4.766 -8.054,-6.081c-2.849,-1.315 -9.917,-3.781 -21.204,-7.397c-18.409,-6.027 -31.558,-14.355 -39.448,-24.984c-7.89,-10.629 -11.834,-26.353 -11.834,-47.173c0.109,-20.82 5.314,-37.148 15.614,-48.982c10.301,-11.835 25.313,-17.807 45.037,-17.916c26.518,-0 44.818,10.355 54.899,31.065c4.931,9.643 7.506,23.341 7.726,41.092l-39.778,0c-0.876,-14.135 -2.794,-23.888 -5.752,-29.257c-3.069,-5.26 -8.328,-7.89 -15.78,-7.89c-13.697,0 -20.546,11.122 -20.546,33.367c0,9.424 2.247,16.711 6.739,21.861c4.493,5.15 12.821,9.862 24.984,14.135c12.273,4.164 20.601,7.342 24.984,9.534c4.383,2.191 8.602,5.095 12.657,8.711c11.944,10.301 17.916,27.779 17.916,52.434c-0,47.995 -22.245,72.048 -66.734,72.157c-28.709,0 -48.105,-10.684 -58.186,-32.051c-4.931,-9.424 -7.506,-24.108 -7.725,-44.051l39.777,-0c0.109,14.793 2.137,25.313 6.081,31.559c3.945,6.355 10.465,9.533 19.56,9.533c9.095,-0 15.67,-2.849 19.724,-8.547Z" style="fill-rule:nonzero;"/><path d="M2595.71,1913.46l0,-34.024c11.177,0 18.574,-1.698 22.19,-5.095c3.616,-3.397 6.958,-11.999 10.026,-25.806l2.301,-12.163l-43.393,-174.724l41.421,0l22.847,120.153l22.354,-120.153l41.75,0l-44.873,190.174c-5.807,25.532 -13.423,42.188 -22.847,49.968c-9.424,7.78 -26.682,11.67 -51.776,11.67Z" style="fill-rule:nonzero;"/><path d="M2719.97,1836.04l0,-23.834l56.872,-116.536l-50.461,-0l-0,-34.025l97.634,0l0,23.998l-56.871,116.373l60.652,-0l-0,34.024l-107.826,-0Z" style="fill-rule:nonzero;"/><path d="M2849.66,1913.46l-0,-34.024c11.177,0 18.573,-1.698 22.189,-5.095c3.617,-3.397 6.959,-11.999 10.027,-25.806l2.301,-12.163l-43.393,-174.724l41.421,0l22.847,120.153l22.354,-120.153l41.749,0l-44.872,190.174c-5.808,25.532 -13.424,42.188 -22.847,49.968c-9.424,7.78 -26.683,11.67 -51.776,11.67Z" style="fill-rule:nonzero;"/><path d="M3026.51,1722.3l-0,45.037c-0,13.259 1.315,22.683 3.945,28.271c2.63,5.589 6.903,8.383 12.82,8.383c12.383,0 18.574,-12.656 18.574,-37.969l-0,-34.353c-0,-25.532 -6.301,-38.298 -18.902,-38.298c-10.958,0 -16.437,9.643 -16.437,28.929Zm35.339,122.126l-0,-12.821c-8.109,5.15 -17.204,7.725 -27.285,7.725c-17.423,0 -29.97,-5.917 -37.64,-17.752c-7.671,-11.834 -11.506,-31.229 -11.506,-58.186l-0,-38.133c-0,-23.34 3.725,-40.38 11.177,-51.119c7.451,-10.738 18.683,-16.108 33.695,-16.108c15.013,0 27.34,5.26 36.983,15.78l3.945,-12.164l31.723,0l-0,176.696c-0,26.956 -4.767,46.516 -14.3,58.679c-9.533,12.164 -25.258,18.245 -47.174,18.245c-21.915,0 -36.654,-7.561 -44.215,-22.683c-3.397,-6.465 -5.205,-16.875 -5.424,-31.229l36.325,-0c0.22,7.889 1.425,13.368 3.617,16.436c2.191,3.069 6.355,4.657 12.492,4.767c6.246,0.11 10.738,-2.575 13.478,-8.054c2.739,-5.479 4.109,-15.505 4.109,-30.079Z" style="fill-rule:nonzero;"/><path d="M3133.19,1913.46l-0,-34.024c11.177,0 18.573,-1.698 22.189,-5.095c3.616,-3.397 6.959,-11.999 10.027,-25.806l2.301,-12.163l-43.393,-174.724l41.421,0l22.847,120.153l22.354,-120.153l41.749,0l-44.872,190.174c-5.808,25.532 -13.424,42.188 -22.847,49.968c-9.424,7.78 -26.683,11.67 -51.776,11.67Z" style="fill-rule:nonzero;"/></g><g><path d="M3328.63,1824.04l30.243,-0c13.917,0.219 24.217,-4.055 30.902,-12.821c6.574,-8.766 9.752,-22.464 9.533,-41.092l-0,-106.346c0.219,-18.629 -2.959,-32.326 -9.533,-41.092c-6.575,-8.767 -16.876,-12.985 -30.902,-12.657l-30.243,0l-0,214.008Zm-14.794,13.149l0,-240.306l46.024,-0c17.97,-0.438 31.613,4.876 40.927,15.944c9.314,11.067 13.752,27.175 13.314,48.324l-0,111.77c0.438,21.149 -4,37.257 -13.314,48.324c-9.314,11.068 -22.957,16.382 -40.927,15.944l-46.024,-0Z" style="fill-rule:nonzero;"/><path d="M3469.33,1742.18l54.57,0l-0,-15.45c-0,-16.437 -2.137,-28.162 -6.411,-35.175c-4.273,-7.013 -11.231,-10.52 -20.874,-10.52c-9.643,0 -16.601,3.507 -20.875,10.52c-4.274,7.013 -6.41,18.738 -6.41,35.175l-0,15.45Zm-0,12.492l-0,26.628c-0,16.437 2.136,28.162 6.41,35.175c4.274,7.013 11.341,10.574 21.203,10.684c9.863,0.109 16.985,-3.233 21.368,-10.027c4.383,-6.794 6.465,-17.752 6.246,-32.874l13.478,0c0,15.67 -1.698,27.34 -5.095,35.011c-6.136,13.697 -17.752,20.546 -34.846,20.546c-17.094,-0 -29.148,-6.356 -36.161,-19.067c-4.712,-8.547 -7.068,-22.573 -7.068,-42.078l0,-49.146c0,-21.149 2.904,-36.216 8.712,-45.201c7.451,-10.739 18.847,-16.108 34.188,-16.108c15.341,-0 26.409,6.41 33.203,19.231c4.712,8.547 7.067,22.573 7.067,42.078l0,25.148l-68.705,0Z" style="fill-rule:nonzero;"/><path d="M3571.4,1781.96l13.478,0c0,12.821 1.096,22.135 3.288,27.943c4.273,11.396 12.82,17.149 25.641,17.259c9.424,0.109 16.711,-2.904 21.861,-9.041c5.15,-6.136 7.725,-14.848 7.725,-26.134c0,-11.287 -3.013,-19.341 -9.04,-24.162c-2.958,-2.74 -10.136,-5.753 -21.532,-9.041c-14.245,-4.711 -24.107,-10.355 -29.586,-16.929c-5.479,-6.575 -8.219,-16.711 -8.219,-30.409c0,-13.478 3.288,-24.052 9.862,-31.723c6.575,-7.67 15.999,-11.505 28.272,-11.505c18.409,-0 30.517,7.944 36.325,23.833c2.192,6.684 3.287,16.601 3.287,29.751l-13.478,-0c0,-14.355 -1.972,-24.765 -5.917,-31.23c-4.054,-6.356 -10.3,-9.534 -18.738,-9.534c-16.985,0 -25.477,10.301 -25.477,30.902c-0,12.601 4.383,21.696 13.149,27.285c3.726,2.41 11.616,5.479 23.669,9.204c12.054,3.726 20.327,8.876 24.82,15.451c4.493,6.575 6.739,16.656 6.739,30.244c0,13.587 -3.78,24.655 -11.341,33.202c-7.561,8.547 -17.697,12.711 -30.408,12.492c-25.313,-0.11 -39.777,-11.999 -43.394,-35.668c-0.657,-6.684 -0.986,-14.081 -0.986,-22.19Z" style="fill-rule:nonzero;"/><path d="M3692.38,1837.19l0,-166.34l14.464,-0l0,166.34l-14.464,-0Zm0,-210.391l0,-29.915l14.464,-0l0,29.915l-14.464,-0Z" style="fill-rule:nonzero;"/><path d="M3761.74,1727.72l0,51.611c0,31.669 8.986,47.503 26.957,47.503c18.847,-0 28.271,-20.546 28.271,-61.638l0,-22.19c0,-41.092 -9.424,-61.638 -28.271,-61.638c-17.971,-0.11 -26.957,15.341 -26.957,46.352Zm55.228,129.686l0,-35.01c-7.232,11.615 -17.259,17.423 -30.079,17.423c-26.518,-0 -39.723,-20.382 -39.613,-61.145l0,-50.625c0,-39.997 13.204,-59.94 39.613,-59.83c7.232,-0 13.259,1.589 18.08,4.766c4.822,3.178 9.04,8.328 12.657,15.451l2.301,-17.587l11.505,-0l0,185.242c0.11,21.149 -3.123,36.326 -9.697,45.53c-6.575,9.205 -16.711,13.752 -30.408,13.643c-13.698,0.109 -23.56,-3.452 -29.587,-10.684c-6.026,-7.232 -9.095,-18.355 -9.204,-33.367l-0,-3.78l13.149,-0c0,12.601 1.918,21.587 5.753,26.956c3.835,5.369 10.355,8.054 19.56,8.054c9.205,0 15.834,-3.342 19.888,-10.026c4.055,-6.685 6.082,-18.355 6.082,-35.011Z" style="fill-rule:nonzero;"/><path d="M3875.98,1837.19l0,-166.34l11.506,-0l0.986,18.244c4.274,-7.78 8.876,-13.204 13.807,-16.272c4.931,-3.068 11.341,-4.602 19.231,-4.602c17.314,-0 28.491,8.656 33.531,25.97c2.192,6.684 3.342,17.971 3.452,33.86l-0,109.14l-14.464,-0l-0,-107.661c-0,-17.752 -1.863,-30.244 -5.589,-37.476c-3.726,-7.123 -10.41,-10.684 -20.053,-10.684c-9.643,0 -16.711,4.602 -21.203,13.807c-4.493,9.205 -6.739,24.107 -6.739,44.708l-0,97.306l-14.465,-0Z" style="fill-rule:nonzero;"/></g></g></svg>